<?xml version="1.0" encoding="utf-8"?>
<svg xmlns="http://www.w3.org/2000/svg" viewBox="0 0 256 256">
  <path d="M64 0h128c35.347656 0 64 28.652344 64 64v128c0 35.347656-28.652344 64-64 64H64c-35.347656 0-64-28.652344-64-64V64C0 28.652344 28.652344 0 64 0Zm0 0" style="stroke:none;fill-rule:nonzero;fill-opacity:1;fill:#1a1c2c"/>
  <path d="M78.9 116.22h-7.36v-4.99c2.01 0 3.62-.17 4.83-.51 1.22-.34 2.19-.91 2.91-1.7.73-.79 1.37-1.93 1.92-3.42h4.74v44.8H78.9v-34.18Zm15.61 29.32c0-3.2.51-5.94 1.54-8.23 1.02-2.28 2.85-4.81 5.5-7.58 2.61-2.77 4.41-5.14 5.41-7.11 1-1.96 1.5-4.01 1.5-6.14 0-1.92-.31-3.25-.92-4-.62-.75-1.53-1.12-2.72-1.12-2.43 0-3.65 1.47-3.65 4.42v4.8h-6.66v-4.36c0-3.63.9-6.41 2.69-8.35 1.79-1.94 4.4-2.91 7.81-2.91 3.41 0 6.02.97 7.81 2.91 1.79 1.94 2.68 4.72 2.68 8.35 0 2.73-.65 5.4-1.95 8-1.3 2.61-3.55 5.59-6.75 8.96-2.09 2.22-3.5 4.02-4.22 5.41-.73 1.39-1.09 2.87-1.09 4.45v.96h13.37v6.4H94.51v-4.86Zm56.19 5.5c-3.45 0-6.07-.96-7.84-2.88-1.77-1.92-2.65-4.67-2.65-8.26v-3.64h6.65v3.96c0 2.95 1.22 4.42 3.65 4.42 1.19 0 2.1-.37 2.72-1.12.62-.75.93-2.06.93-3.94v-3.64c0-2.05-.36-3.52-1.09-4.39-.73-.87-1.9-1.31-3.52-1.31h-2.37v-6.4h2.56c1.41 0 2.46-.36 3.17-1.09.71-.73 1.06-1.94 1.06-3.65v-3.26c0-1.53-.32-2.66-.96-3.39-.64-.73-1.49-1.09-2.56-1.09-2.27 0-3.4 1.39-3.4 4.16v2.94h-6.65v-2.36c0-3.59.88-6.34 2.65-8.26s4.32-2.88 7.65-2.88c3.37 0 5.93.95 7.68 2.85 1.75 1.9 2.63 4.64 2.63 8.22v1.6c0 2.43-.41 4.39-1.22 5.86-.81 1.47-2.07 2.53-3.78 3.17v.12c1.84.69 3.16 1.8 3.97 3.33.81 1.54 1.22 3.5 1.22 5.89v3.97c0 3.58-.89 6.32-2.66 8.22-1.77 1.9-4.38 2.85-7.84 2.85Zm27.4-8.77h-13.44v-6.4l12.8-30.27h7.68v30.27h3.32v6.4h-3.32v8.13h-7.04v-8.13Zm0-6.4V118.4h-.13l-6.91 17.47h7.04ZM124.61 114.42h6.79v6.79h-6.79v-6.79Zm0 20.39h6.79v6.78h-6.79v-6.78Z" style="fill:#f4f4f4" transform="translate(-13.70501062 -11.70499342)"/>
  <path d="M209.95 78.92c8.43 5.44 14.05 14.89 14.05 25.67v56.19c0 27.16-22.01 49.17-49.17 49.17H90.54c-10.77 0-20.23-5.62-25.67-14.05h109.96c19.39 0 35.12-15.73 35.12-35.12V78.92Z" style="fill:#ffcd75"/>
  <path d="m46.05 76.02.09-.84c.66-8.43 7.68-15.08 16.3-15.08h107.71c8.89 0 16.11 7.12 16.39 15.92v80.08l-.1 1.31c-.65 8.43-7.68 15.08-16.29 15.08H62.44l-1.31-.1c-8.43-.65-15.08-7.68-15.08-16.29Zm14.7-29.88C44.74 46.99 32 60.28 32 76.49v79.61l.09 1.68c.85 16.02 14.15 28.76 30.35 28.76h107.71l1.68-.1c16.02-.84 28.76-14.14 28.76-30.34V76.49l-.1-1.69c-.84-16.01-14.14-28.75-30.34-28.75H62.44Z" style="fill:#f4f4f4"/>
</svg>
